# xmcd CD database file
#
# Track frame offsets:
#	150
#	17588
#	36735
#	50858
#	66788
#	81470
#	102515
#	119152
#	135082
#	152908
#	170491
#	181656
#	205818
#
# Disc length: 3045 seconds
#
# Revision: 0
# Processed by: cddbd v1.5.2PL0 Copyright (c) Steve Scherf et al.
# Submitted via: Feurio! 1.68 - http://www.feurio.com
#
DISCID=bb0be30d
DTITLE=Seasick Steve  -  Man From Another Time
DYEAR=1900
DGENRE=
TTITLE0=Diddley Bo
TTITLE1=Big Green And Yeller
TTITLE2=Happy (To Have A Job)
TTITLE3=The Banjo Song
TTITLE4=Man From Another Time
TTITLE5=That's All
TTITLE6=Just Because I Can (Csx)
TTITLE7=Never Go West
TTITLE8=Dark
TTITLE9=Wenatchee
TTITLE10=My Home (Blue Eyes)
TTITLE11=Seasick Boogie
TTITLE12=I'm So Lonesome I Could Cry
EXTD=
EXTT0=
EXTT1=
EXTT2=
EXTT3=
EXTT4=
EXTT5=
EXTT6=
EXTT7=
EXTT8=
EXTT9=
EXTT10=
EXTT11=
EXTT12=
PLAYORDER=
